Coordinates
version=1
nRows=12
nColumns=24
inDegrees=yes

Units are S.I. units (second, meters, Newtons, ...)
Angles are in degrees.

endheader
time	pelvis_tilt	pelvis_list	pelvis_rotation	pelvis_tx	pelvis_ty	pelvis_tz	hip_flexion_r	hip_adduction_r	hip_rotation_r	knee_angle_r	ankle_angle_r	subtalar_angle_r	mtp_angle_r	hip_flexion_l	hip_adduction_l	hip_rotation_l	knee_angle_l	ankle_angle_l	subtalar_angle_l	mtp_angle_l	lumbar_extension	lumbar_bending	lumbar_rotation
      4.82500000	     -9.47433070	      6.40338322	     -3.46472957	     -0.87233748	     -0.01744595	     -0.35410004	     27.76310292	     -7.88051539	     -1.21570962	    -61.79659484	     -9.25374005	      4.82562827	     33.72358248	     16.94422631	      9.61955574	      8.30995707	    -17.94080737	      6.68377344	      0.98185416	    -13.52819727	      8.55530277	    -10.19787601	     -3.07308648
      4.83000000	     -9.41829620	      6.11878885	     -3.34165282	     -0.86637635	     -0.01656362	     -0.35470966	     28.29068896	     -7.53738870	     -1.42254630	    -61.18064472	     -8.62648082	      4.78927014	     33.23085825	     16.15208320	      9.44839955	      8.82087712	    -17.47298678	      6.87792758	      0.66949902	    -13.98672064	      8.48801897	     -9.89557049	     -3.40858011
      4.83500000	     -9.36700064	      5.85355011	     -3.21933631	     -0.86040768	     -0.01576269	     -0.35531482	     28.81088621	     -7.22483452	     -1.63885804	    -60.51695763	     -8.00496930	      4.69805485	     32.65665821	     15.36558612	      9.28343709	      9.31032044	    -16.99929542	      7.08542402	      0.40514516	    -14.43903576	      8.43606889	     -9.61034083	     -3.69758763
      4.84000000	     -9.32961369	      5.59564582	     -3.09102182	     -0.85447626	     -0.01505592	     -0.35589152	     29.33248351	     -6.92218461	     -1.85475164	    -59.80125716	     -7.40804624	      4.55384333	     32.07440075	     14.61081852	      9.10928372	      9.74653984	    -16.54127141	      7.30474173	      0.21214793	    -14.82352185	      8.39553981	     -9.33671963	     -3.99516534
      4.84500000	     -9.28772672	      5.37281943	     -2.96721192	     -0.84851438	     -0.01442660	     -0.35645616	     29.83963926	     -6.66783778	     -2.06994557	    -59.05300722	     -6.77636328	      4.44517429	     31.31992444	     13.84215183	      8.95968091	     10.18287826	    -16.06503517	      7.55341799	      0.06175640	    -15.27623384	      8.36423187	     -9.09646563	     -4.21982074
      4.85000000	     -9.31127376	      5.11518085	     -2.84755012	     -0.84262454	     -0.01390437	     -0.35699084	     30.38927940	     -6.36277332	     -2.26520138	    -58.19669202	     -6.28286698	      4.22623880	     30.92480094	     13.18393541	      8.74793055	     10.44996115	    -15.62822035	      7.74460810	     -0.00029452	    -15.44952271	      8.39296084	     -8.82330335	     -4.50323652
      4.85500000	     -9.24198824	      4.90131083	     -2.67346733	     -0.83675181	     -0.01341472	     -0.35757083	     30.81902660	     -6.14678342	     -2.51676092	    -57.32672061	     -5.70682893	      3.95170206	     30.19019115	     12.41596506	      8.60010533	     10.87785079	    -15.18510769	      7.97719264	     -0.09228735	    -15.71476401	      8.30901191	     -8.60945874	     -4.86285944
      4.86000000	     -9.21927028	      4.69178656	     -2.52897211	     -0.83086923	     -0.01303067	     -0.35810580	     31.28397553	     -5.92313106	     -2.73253013	    -56.39821114	     -5.13477773	      3.77547103	     29.43186514	     11.70559717	      8.43443993	     11.21499896	    -14.74303845	      8.21066406	     -0.13996788	    -15.95757378	      8.28903362	     -8.39113462	     -5.14543958
      4.86500000	     -9.21140378	      4.49510046	     -2.38679019	     -0.82502268	     -0.01274235	     -0.35861087	     31.74929537	     -5.71539021	     -2.93933050	    -55.41121292	     -4.59311541	      3.60605244	     28.73499868	     11.02787665	      8.27036496	     11.50469706	    -14.31726615	      8.44452986	     -0.14200952	    -16.13669312	      8.28287212	     -8.18925714	     -5.42005463
      4.87000000	     -9.20732911	      4.30423803	     -2.24251470	     -0.81920191	     -0.01253548	     -0.35910133	     32.19753230	     -5.52123088	     -3.14791606	    -54.36484435	     -4.07434597	      3.45920748	     28.04740714	     10.36528764	      8.10567447	     11.77527893	    -13.90272199	      8.67425617	     -0.12820313	    -16.27381230	      8.27663280	     -7.99489157	     -5.69403378
      4.87500000	     -9.20818656	      4.11983472	     -2.09775188	     -0.81340128	     -0.01240376	     -0.35955649	     32.62744817	     -5.33738199	     -3.35395102	    -53.25752990	     -3.57452251	      3.35142628	     27.35501640	      9.72084389	      7.94105403	     12.02977496	    -13.50539222	      8.90546962	     -0.10579449	    -16.37557064	      8.27674823	     -7.81466370	     -5.96442998
      4.88000000	     -9.21349996	      3.93916849	     -1.95094151	     -0.80762723	     -0.01234932	     -0.36002225	     33.04056969	     -5.16872399	     -3.56702925	    -52.09455817	     -3.09682434	      3.28553888	     26.64891341	      9.09272328	      7.77754561	     12.26780026	    -13.12101975	      9.13256858	     -0.07447931	    -16.44939047	      8.27568358	     -7.62978005	     -6.23403206
